# xmcd
#
# Track frame offsets: 
#        225
#        12846
#        22144
#        35435
#        48710
#        67895
#        80087
#        96031
#        115363
#        127532
#        152975
#        172532
#        187239
#        211205
#        225766
#        248576
#        264855
#        279255
#        299316
#        314148
#
# Disc length: 4480 seconds
#
# Revision: 0
# Processed by: cddbd v1.5.2PL0 Copyright (c) Steve Scherf et al.
# Submitted via: ExactAudioCopy v0.99pb3
#
DISCID=0a117d14
DTITLE=Steve Winwood - Revolutions - The Very Best of Steve Winwood [D
DTITLE=isc 1]
DYEAR=2010
DGENRE=
TTITLE0=Keep On Running
TTITLE1=Somebody Help Me
TTITLE2=Gimme Some Lovin'
TTITLE3=I'm A Man
TTITLE4=Paper Sun
TTITLE5=Coloured Rain
TTITLE6=No Face, No Name, No Number
TTITLE7=Heaven Is In Your Mind
TTITLE8=Smiling Phases
TTITLE9=Dear Mr Fantasy
TTITLE10=Pearly Queen
TTITLE11=Forty Thousand Headmen
TTITLE12=No Time To Live
TTITLE13=Who Knows What Tomorrow May Bring
TTITLE14=Shanghai Noodle Factory
TTITLE15=Medicated Goo
TTITLE16=Withering Tree
TTITLE17=Well All Right
TTITLE18=Can't Find My Way Home
TTITLE19=Presence Of The Lord
EXTD=
EXTT0=
EXTT1=
EXTT2=
EXTT3=
EXTT4=
EXTT5=
EXTT6=
EXTT7=
EXTT8=
EXTT9=
EXTT10=
EXTT11=
EXTT12=
EXTT13=
EXTT14=
EXTT15=
EXTT16=
EXTT17=
EXTT18=
EXTT19=
PLAYORDER=
